<svg xmlns="http://www.w3.org/2000/svg" width="90" height="90" viewBox="0 0 90 90">
  <g id="alert" transform="translate(-2102 -1163)">
    <path id="danger" d="M63.885,51.305V19.7a3.357,3.357,0,0,0-1.693-2.935L34.826.955a3.364,3.364,0,0,0-3.387,0L4.073,16.76A3.357,3.357,0,0,0,2.38,19.7v31.61a3.357,3.357,0,0,0,1.693,2.935L31.439,70.046a3.4,3.4,0,0,0,3.387,0L62.191,54.241A3.357,3.357,0,0,0,63.885,51.305ZM29.746,52.434V49.973a3.387,3.387,0,0,1,6.774,0v2.461a3.387,3.387,0,0,1-6.774,0Zm6.774-12.328a3.387,3.387,0,0,1-6.774,0V18.566a3.387,3.387,0,1,1,6.774,0Z" transform="translate(2114.62 1172.503)" fill="#fd5d5d"/>
    <rect id="Rectangle_132" data-name="Rectangle 132" width="90" height="90" transform="translate(2102 1163)" fill="none"/>
  </g>
</svg>
