<svg xmlns="http://www.w3.org/2000/svg" width="32" height="32" viewBox="0 0 32 32">
  <g id="Group_407" data-name="Group 407" transform="translate(-922 -238)">
    <circle id="Ellipse_56" data-name="Ellipse 56" cx="16" cy="16" r="16" transform="translate(922 238)" fill="#fd5d5d"/>
    <g id="Group_406" data-name="Group 406" transform="translate(-1456 -934)">
      <path id="cross" d="M30.495,29.165a.928.928,0,0,1,0,1.33.953.953,0,0,1-1.33,0l-3.8-3.8-3.8,3.8a.953.953,0,0,1-1.33,0,.928.928,0,0,1,0-1.33l3.8-3.8-3.8-3.8a.94.94,0,0,1,1.33-1.33l3.8,3.8,3.8-3.8a.94.94,0,1,1,1.33,1.33l-3.8,3.8Z" transform="translate(2368.637 1162.643)" fill="#fff"/>
      <rect id="Rectangle_133" data-name="Rectangle 133" width="32" height="32" transform="translate(2378 1172)" fill="none"/>
    </g>
  </g>
</svg>
