<svg xmlns="http://www.w3.org/2000/svg" width="24" height="24" viewBox="0 0 24 24">
  <g id="Group_70" data-name="Group 70" transform="translate(-0.161)">
    <rect id="Rectangle_63" data-name="Rectangle 63" width="24" height="24" transform="translate(0.161)" fill="none"/>
    <g id="Group_68" data-name="Group 68" transform="translate(4.138 4.966)">
      <g id="Group_66" data-name="Group 66">
        <path id="Path_395" data-name="Path 395" d="M2451.243,495.668a.966.966,0,0,1,1.079-.714.351.351,0,0,1,.242.1v6.012c-.146.185-.35.1-.526.1-.8.01-.8,0-.8-.794q0-.959,0-1.917,0-1.04,0-2.079Q2451.238,496.021,2451.243,495.668Z" transform="translate(-2436.012 -488.742)" fill="#fff"/>
        <path id="Path_396" data-name="Path 396" d="M2143.485,527.833l0,2.079q-3.8,0-7.595,0-3.151,0-6.3,0,0-1.036,0-2.073l3.095,0,1.334,0c.043,0,.086.006.129.006h9.079C2143.313,527.846,2143.4,527.838,2143.485,527.833Z" transform="translate(-2128.264 -520.201)" fill="#fff"/>
        <path id="Path_397" data-name="Path 397" d="M2100.222,358.8q0,1.036,0,2.073c0,.83,0,1.659,0,2.489,0,.168-.07.231-.233.228q-.436-.009-.873,0c-.158,0-.225-.067-.225-.222q0-5.988,0-11.976c0-.165.07-.228.234-.23.754-.008,1.094.326,1.1,1.086,0,.275,0,.549.006.824v3.62Q2100.227,357.743,2100.222,358.8Z" transform="translate(-2098.896 -351.159)" fill="#fff"/>
        <path id="Path_398" data-name="Path 398" d="M2129.6,373.425v-.2a1.007,1.007,0,0,1,.984-.864,1.03,1.03,0,0,1,.917.874c.127.493.254.987.4,1.474a1.032,1.032,0,0,1-.587,1.334c.62,0,1.214,0,1.809,0,.066,0,.143-.028.191.048a.924.924,0,0,0-.625.964c.011.633,0,1.267-.005,1.9l-3.095,0q.005-1.054.01-2.108c.106-.616.538-.8,1.178-.806a.979.979,0,0,1-.667-.686C2129.943,374.707,2129.77,374.066,2129.6,373.425Z" transform="translate(-2128.264 -371.44)" fill="#fff"/>
        <path id="Path_399" data-name="Path 399" d="M2214.124,459.65c0-.773-.423-1.1-1.32-1.023l-5.711,0-2.733,0-.116.02-.087.022a.925.925,0,0,0-.619.964c.011.633,0,1.267-.005,1.9l1.221,0h0c.042,0,.085.006.127.006h8.984c.085,0,.17-.009.255-.013q.005-.353.01-.706C2214.127,460.426,2214.125,460.038,2214.124,459.65Z" transform="translate(-2199.012 -453.974)" fill="#fff"/>
      </g>
    </g>
  </g>
</svg>
