<svg xmlns="http://www.w3.org/2000/svg" width="23.587" height="24.391" viewBox="0 0 23.587 24.391">
  <g id="Group_46" data-name="Group 46" transform="translate(0 0)">
    <path id="Path_381" data-name="Path 381" d="M18.508,8.121a10.261,10.261,0,0,1-7.5,3.053A10.261,10.261,0,0,1,3.5,8.121,10.184,10.184,0,0,1,.42.589,10.184,10.184,0,0,1,3.5-6.943,10.261,10.261,0,0,1,11.005-10a10.261,10.261,0,0,1,7.5,3.053A10.184,10.184,0,0,1,21.59.589,10.184,10.184,0,0,1,18.508,8.121ZM6.774,4.951a5.769,5.769,0,0,0,4.231,1.687,5.769,5.769,0,0,0,4.231-1.687,5.875,5.875,0,0,0,1.7-4.362,5.875,5.875,0,0,0-1.7-4.362A5.769,5.769,0,0,0,11.005-5.46,5.769,5.769,0,0,0,6.774-3.773,5.875,5.875,0,0,0,5.073.589,5.875,5.875,0,0,0,6.774,4.951Z" transform="translate(-0.42 9.996)" fill="#f7d716"/>
    <path id="Path_380" data-name="Path 380" d="M.426-2.763v-.911L2.9-6.2a2.467,2.467,0,0,0,.9-1.559,1.048,1.048,0,0,0-.309-.8A1.1,1.1,0,0,0,2.7-8.848a1.388,1.388,0,0,0-1.316.881L.406-8.544a2.409,2.409,0,0,1,.942-1.073,2.567,2.567,0,0,1,1.347-.364,2.341,2.341,0,0,1,1.6.587,2.02,2.02,0,0,1,.668,1.6A3.417,3.417,0,0,1,3.745-5.5L2.137-3.887H5.094v1.124Z" transform="translate(18.493 27.154)" fill="#f7d716"/>
  </g>
</svg>
