<svg xmlns="http://www.w3.org/2000/svg" width="19.513" height="18.298" viewBox="0 0 19.513 18.298">
  <g id="Group_44" data-name="Group 44" transform="translate(0 0)">
    <path id="Path_374" data-name="Path 374" d="M-486.133,335.18v-2.37c.012-.381,0-.763.041-1.142a12.152,12.152,0,0,1,.216-1.583,12.193,12.193,0,0,1,1.615-3.666,12.481,12.481,0,0,1,2.514-3,4.959,4.959,0,0,1,1.331-.843,1.591,1.591,0,0,1,2.163.737,6.7,6.7,0,0,1,.47,1.121c.119.352.186.722.281,1.1a1.278,1.278,0,0,0,.379-.874c-.02-1.369-.009-2.738-.007-4.107a1.485,1.485,0,0,1,.039-.359.736.736,0,0,1,.715-.552.738.738,0,0,1,.727.563,1.562,1.562,0,0,1,.036.359c0,1.369.009,2.738,0,4.107,0,.332.241.466.409.714a6.629,6.629,0,0,1,.7-2.1,1.638,1.638,0,0,1,1.271-.927,2.125,2.125,0,0,1,1.189.277,7.278,7.278,0,0,1,2.117,1.754,14.869,14.869,0,0,1,2.583,4.141,7.871,7.871,0,0,1,.694,2.741c.043,1.228.038,2.458.032,3.687a5.04,5.04,0,0,1-.28,1.782,1.574,1.574,0,0,1-1.065,1.056,3.284,3.284,0,0,1-1.8-.077,8.854,8.854,0,0,1-4.559-3.032,5.013,5.013,0,0,1-1.206-3.393c.044-1.272.065-2.545.092-3.818a.282.282,0,0,0-.05-.189c-.258-.254-.524-.5-.773-.73-.325.277-.651.547-.967.83a.3.3,0,0,0-.052.2c.027,1.3.062,2.609.084,3.914a4.488,4.488,0,0,1-.063.835,5.646,5.646,0,0,1-1.529,2.872,9.113,9.113,0,0,1-3.125,2.2,5.046,5.046,0,0,1-2.492.507,1.526,1.526,0,0,1-1.141-.606,2.71,2.71,0,0,1-.464-1.236C-486.068,335.786-486.1,335.482-486.133,335.18Z" transform="translate(486.133 -319.647)" fill="#764af1"/>
  </g>
</svg>
