<svg id="Group_69" data-name="Group 69" xmlns="http://www.w3.org/2000/svg" width="24" height="24" viewBox="0 0 24 24">
  <rect id="Rectangle_44" data-name="Rectangle 44" width="24" height="24" fill="none"/>
  <g id="Group_67" data-name="Group 67" transform="translate(4.138 3.31)">
    <path id="Path_400" data-name="Path 400" d="M-462.383-291l4.8,2.62,9.438,5.148a1.386,1.386,0,0,1,.125.074.482.482,0,0,1,.158.628.479.479,0,0,1-.623.214c-.1-.046-.2-.1-.3-.159l-.3-.165v3.653h-.979v-.187c0-1.277,0-2.554,0-3.831a.253.253,0,0,0-.158-.259c-.862-.464-1.721-.935-2.581-1.4-.05-.027-.1-.052-.17-.086v3.825h-.974v-.184q0-2.012,0-4.025c0-.086,0-.158-.1-.212-.91-.49-1.816-.986-2.723-1.481-.022-.012-.046-.021-.09-.041v4.007h-.971v-.186c0-1.4,0-2.8,0-4.2a.229.229,0,0,0-.141-.235c-.881-.475-1.758-.956-2.637-1.435-.036-.02-.075-.036-.129-.061v4.175h-.976v-.184q0-2.19,0-4.38a.214.214,0,0,0-.131-.225c-.283-.144-.556-.307-.838-.453a.507.507,0,0,1-.324-.478.471.471,0,0,1,.333-.451c.008,0,.013-.015.02-.023Z" transform="translate(463.644 291)" fill="#fff"/>
    <path id="Path_401" data-name="Path 401" d="M-478.16-67.914h3.308a.5.5,0,0,1,.571.576c0,.447,0,.893,0,1.364h3.312a.5.5,0,0,1,.567.563c0,.452,0,.9,0,1.376h3.316a.5.5,0,0,1,.563.567q0,1.212,0,2.424a.5.5,0,0,1-.566.565h-15.351a.5.5,0,0,1-.57-.577q0-4.112,0-8.225a.5.5,0,0,1,.574-.573h3.7a.5.5,0,0,1,.575.572C-478.159-68.834-478.16-68.387-478.16-67.914Z" transform="translate(483.009 77.03)" fill="#fff"/>
  </g>
</svg>
