<svg xmlns="http://www.w3.org/2000/svg" width="29" height="29" viewBox="0 0 29 29">
  <g id="Group_39" data-name="Group 39" transform="translate(0.125)">
    <g id="Group_38" data-name="Group 38" transform="translate(5.123 4.729)">
      <path id="Path_371" data-name="Path 371" d="M-504.961-319.678a3.783,3.783,0,0,1-.73-.071,3.95,3.95,0,0,1-3.095-3.091,3.91,3.91,0,0,1,3-4.548,6.8,6.8,0,0,1,1-.123l.325-.026a.759.759,0,0,0,.735-.63,4.467,4.467,0,0,1,1.292-2.161l.177-.17.207-.2-.136-.252c-.027-.051-.053-.1-.079-.151-.058-.113-.118-.229-.19-.343a3.9,3.9,0,0,1-.235-3.789,3.86,3.86,0,0,1,3.05-2.186,5.011,5.011,0,0,1,.586-.035,3.585,3.585,0,0,1,3.162,1.749,3.8,3.8,0,0,1,.087,4.189c-.019.034-.047.075-.076.119a.968.968,0,0,0-.222.606.894.894,0,0,0,.346.567c.035.033.068.064.092.091a4.51,4.51,0,0,1,1.113,2.017.688.688,0,0,0,.66.569l.306.021c.236.016.459.03.684.056a3.858,3.858,0,0,1,2.3,1.086,3.842,3.842,0,0,1,1.117,2.28,3.961,3.961,0,0,1-.933,3.1,3.805,3.805,0,0,1-2.861,1.319h-.056a3.843,3.843,0,0,1-3.313-1.788c-.154-.224-.321-.443-.5-.653a.614.614,0,0,0-.453-.2.517.517,0,0,0-.142.019,5.153,5.153,0,0,1-1.414.2,5.051,5.051,0,0,1-1.4-.2.508.508,0,0,0-.14-.019.615.615,0,0,0-.454.2,7.5,7.5,0,0,0-.5.657A4.045,4.045,0,0,1-504.961-319.678Zm.561-6.709c-.306.013-.623.026-.94.07a2.777,2.777,0,0,0-2.36,2.606,2.731,2.731,0,0,0,1.956,2.733,2.808,2.808,0,0,0,.795.116A2.756,2.756,0,0,0-502.6-322.2c.077-.125.165-.249.258-.38.047-.066.094-.133.142-.2l.192-.279-.257-.221a4.565,4.565,0,0,1-1.581-2.7.547.547,0,0,0-.518-.408h-.039Zm9.944.274a4.769,4.769,0,0,1-1.59,2.846l-.251.222.191.276c.061.088.119.174.176.259.129.191.251.372.388.551a2.785,2.785,0,0,0,2.2,1.077,2.69,2.69,0,0,0,.88-.146,2.794,2.794,0,0,0,1.832-2.644,2.647,2.647,0,0,0-1.894-2.532,5.9,5.9,0,0,0-1.058-.168c-.149-.014-.3-.029-.453-.049l-.358-.048Zm-4.7-4.379a3.608,3.608,0,0,0-3.605,3.591,3.588,3.588,0,0,0,1.058,2.557,3.577,3.577,0,0,0,2.546,1.063,3.61,3.61,0,0,0,3.606-3.6,3.583,3.583,0,0,0-1.055-2.554,3.581,3.581,0,0,0-2.55-1.06Zm-.024-5.805a2.727,2.727,0,0,0-1.993.9,2.7,2.7,0,0,0-.72,2.044,3.73,3.73,0,0,0,.6,1.568l.11.193.152.27.294-.1a5.067,5.067,0,0,1,1.585-.262,4.993,4.993,0,0,1,1.569.26l.3.1.151-.275.107-.2c.07-.128.136-.249.2-.367a2.761,2.761,0,0,0,.126-2.607,2.748,2.748,0,0,0-2.116-1.506A2.516,2.516,0,0,0-499.184-336.3Z" transform="translate(508.863 337.453)" fill="#fff"/>
      <path id="Path_372" data-name="Path 372" d="M-340.885-152.919a.668.668,0,0,1-.474-.212.694.694,0,0,1-.188-.5.685.685,0,0,1,.676-.67h.023a.686.686,0,0,1,.667.71.681.681,0,0,1-.686.668Z" transform="translate(350.568 164.17)" fill="#fff"/>
    </g>
    <rect id="Rectangle_44" data-name="Rectangle 44" width="29" height="29" transform="translate(-0.125)" fill="none"/>
  </g>
</svg>
