<svg id="heartbeat" xmlns="http://www.w3.org/2000/svg" width="24.391" height="14.33" viewBox="0 0 24.391 14.33">
  <path id="Path_377" data-name="Path 377" d="M22.7,27.01l1.24,1.565-2.9,3.156a1.119,1.119,0,0,1-1.636,0l-4.116-4.482,1.8-2.409,1.758,3.715a1.54,1.54,0,0,0,1.255.869l.081.005h.041a1.535,1.535,0,0,0,1.255-.656Z" transform="translate(-8.028 -17.757)" fill="#00ffab"/>
  <path id="Path_378" data-name="Path 378" d="M24.1,18.2l-1.138,1.24-2.215-2.79a1.52,1.52,0,0,0-1.194-.579H19.5a1.532,1.532,0,0,0-1.2.656l-.889,1.281-1.712-3.618a1.536,1.536,0,0,0-1.23-.869c-.051-.005-.1-.005-.152-.005a1.509,1.509,0,0,0-1.219.61L10.13,18.1a4.362,4.362,0,0,1-.747-4.522,4.187,4.187,0,0,1,3.623-2.668,5.06,5.06,0,0,1,4.151,1.733A4.991,4.991,0,0,1,20.964,10.9c.117,0,.234.005.351.01a4.2,4.2,0,0,1,3.623,2.668A4.385,4.385,0,0,1,24.1,18.2Z" transform="translate(-4.963 -10.9)" fill="#00ffab"/>
  <path id="Path_379" data-name="Path 379" d="M19.319,26.327h-.008a.508.508,0,0,1-.39-.192l-3.308-4.171-2,2.887a.508.508,0,0,1-.877-.072l-2.483-5.242L7.066,23.815a.509.509,0,0,1-.407.2H1.508a.508.508,0,1,1,0-1.016H6.4l3.54-4.752a.5.5,0,0,1,.458-.2.507.507,0,0,1,.409.288l2.468,5.212,1.89-2.727a.508.508,0,0,1,.816-.026l3.348,4.221,1.548-1.833a.507.507,0,0,1,.388-.18h3.615a.508.508,0,0,1,0,1.016H21.5l-1.8,2.128A.508.508,0,0,1,19.319,26.327Z" transform="translate(-1 -14.415)" fill="#00ffab"/>
</svg>
