<svg xmlns="http://www.w3.org/2000/svg" width="30" height="30" viewBox="0 0 30 30">
  <g id="Group_193" data-name="Group 193" transform="translate(-1660 113)">
    <path id="Path_422" data-name="Path 422" d="M20.5,9.911a.769.769,0,0,0-1.538,0Zm-14.954,0A.769.769,0,0,0,4,9.911Zm9.285,11.27-.177-.749Zm-5.155,0,.177-.749Zm5.479-16.1-.546.542ZM20.935,12a.769.769,0,0,0,1.092-1.084ZM9.349,5.085l.546.542ZM2.473,10.918A.769.769,0,0,0,3.565,12ZM9.91,18.732l-.756-.142h0Zm.02-.106.756.142h0Zm4.64,0-.756.142h0Zm.02.106.756-.142h0Zm-.3,2.289-.695-.331h0Zm-.814-.079a.769.769,0,0,0,1.389.661Zm-3.271.079-.695.331h0Zm-.575.582a.769.769,0,0,0,1.389-.661Zm1.962-4.8-.206-.741h0Zm1.311,0,.206-.741h0Zm6.052-6.9v5.044H20.5V9.911ZM5.542,14.955V9.911H4v5.044Zm9.109,5.477a10.441,10.441,0,0,1-4.8,0l-.354,1.5a11.979,11.979,0,0,0,5.509,0Zm-4.8,0a5.616,5.616,0,0,1-4.307-5.477H4A7.154,7.154,0,0,0,9.5,21.929ZM15,21.929A7.154,7.154,0,0,0,20.5,14.955H18.958a5.616,5.616,0,0,1-4.307,5.477Zm-.4-16.3L20.935,12l1.092-1.084L15.7,4.543ZM8.8,4.543l-6.33,6.375L3.565,12l6.33-6.375Zm6.894,0a19.352,19.352,0,0,0-1.722-1.617A2.786,2.786,0,0,0,12.25,2.25V3.788a1.289,1.289,0,0,1,.788.357,18.234,18.234,0,0,1,1.567,1.481Zm-5.8,1.084a18.237,18.237,0,0,1,1.568-1.481,1.289,1.289,0,0,1,.788-.357V2.25a2.786,2.786,0,0,0-1.725.676A19.357,19.357,0,0,0,8.8,4.543Zm.771,13.247.02-.106-1.512-.284-.02.106Zm3.148-.106.02.106,1.512-.284-.02-.106ZM13.6,20.691l-.12.252,1.389.661.12-.252Zm-4.086.661.12.252,1.389-.661-.12-.252Zm4.322-2.477a2.959,2.959,0,0,1-.236,1.816l1.389.661a4.5,4.5,0,0,0,.359-2.761Zm-4.68-.284a4.5,4.5,0,0,0,.359,2.761l1.389-.661a2.958,2.958,0,0,1-.236-1.816ZM11.8,17.548a1.682,1.682,0,0,1,.9,0l.411-1.482a3.219,3.219,0,0,0-1.722,0Zm3.526.937a3.1,3.1,0,0,0-2.215-2.419L12.7,17.548a1.563,1.563,0,0,1,1.115,1.221Zm-4.641.284A1.563,1.563,0,0,1,11.8,17.548l-.411-1.482a3.1,3.1,0,0,0-2.215,2.419Z" transform="translate(1662.75 -110.25)" fill="#fff"/>
    <rect id="Rectangle_84" data-name="Rectangle 84" width="30" height="30" transform="translate(1660 -113)" fill="none"/>
  </g>
</svg>
