<svg xmlns="http://www.w3.org/2000/svg" width="24.357" height="24.391" viewBox="0 0 24.357 24.391">
  <g id="Group_45" data-name="Group 45" transform="translate(0 0)">
    <path id="Path_375" data-name="Path 375" d="M-454.1,397.989h.761a.515.515,0,0,0,.085.036,3.461,3.461,0,0,1,2.745,2.261,9.894,9.894,0,0,1,.356,1.323v.857a.339.339,0,0,0-.038.084,7.172,7.172,0,0,1-1.2,3.072,3.432,3.432,0,0,1-1.58,1.355.3.3,0,0,0-.234.332q.011,4.2,0,8.4c0,.452.023.906-.014,1.356a5.468,5.468,0,0,1-3.632,4.949,10.293,10.293,0,0,1-1.442.364h-1c-.068-.017-.135-.036-.2-.049a5.5,5.5,0,0,1-4.579-3.823,11.557,11.557,0,0,1-.306-1.311c-.116,0-.242-.008-.367,0a35.606,35.606,0,0,1-6.951-.161,7.21,7.21,0,0,1-2.178-.551.979.979,0,0,1-.641-.994q.025-6.835,0-13.672a.958.958,0,0,1,.582-.961,4.038,4.038,0,0,1,.505-.205,12.556,12.556,0,0,1,3.037-.512,33.773,33.773,0,0,1,7.563.189,11.482,11.482,0,0,1,1.873.5.913.913,0,0,1,.665,1c-.035.825-.006,1.652-.012,2.477a.279.279,0,0,0,.171.3,4.887,4.887,0,0,1,2.857,4.562,4.886,4.886,0,0,1-2.854,4.563.276.276,0,0,0-.174.292c.008.548,0,1.095,0,1.643a.642.642,0,0,1-.341.635,8.023,8.023,0,0,1-1.224.5c-.467.134-.956.2-1.455.294.029.209.049.413.088.613a4.544,4.544,0,0,0,6,3.386,4.563,4.563,0,0,0,3.016-4.366c.015-3.151,0-6.3.008-9.455a.251.251,0,0,0-.187-.276,3.115,3.115,0,0,1-.607-.317,4.8,4.8,0,0,1-1.557-1.976,5.5,5.5,0,0,1-.578-3.687,3.7,3.7,0,0,1,2.6-2.914C-454.389,398.056-454.245,398.025-454.1,397.989Zm-8.2,7.112a4.065,4.065,0,0,0-4.077,4.01,4.063,4.063,0,0,0,3.988,4.121,4.062,4.062,0,0,0,4.113-4.021A4.065,4.065,0,0,0-462.3,405.1Zm-10.524-3.553a30.043,30.043,0,0,0,10.862,0A29.908,29.908,0,0,0-472.825,401.548Z" transform="translate(474.51 -397.989)" fill="#54f9ff"/>
    <path id="Path_376" data-name="Path 376" d="M-465.65,404.639c0,.134.008.269,0,.4a.826.826,0,0,0,.25.711.944.944,0,0,1-.105,1.391,1,1,0,0,1-1.408-.1.974.974,0,0,1,.087-1.4.41.41,0,0,0,.16-.364c-.008-.42,0-.84,0-1.26a1.577,1.577,0,0,1,.03-.306.472.472,0,0,1,.478-.381.453.453,0,0,1,.476.379c.038.3.035.615.05.923Z" transform="translate(478.343 -395.196)" fill="#53f8ff"/>
  </g>
</svg>
