<svg xmlns="http://www.w3.org/2000/svg" width="18.293" height="24.391" viewBox="0 0 18.293 24.391">
  <path id="temprature" d="M17.22,6.1h2.033a.508.508,0,0,0,0-1.016H17.22a.508.508,0,0,0,0,1.016ZM6.549,4.573A1.524,1.524,0,1,0,5.024,6.1,1.524,1.524,0,0,0,6.549,4.573Zm-1.524.508a.508.508,0,1,1,.508-.508A.508.508,0,0,1,5.024,5.081Zm12.2-1.016h4.065a.508.508,0,0,0,0-1.016H17.22a.508.508,0,0,0,0,1.016ZM9.6,11.687a.508.508,0,0,0-.508-.508H8.073A1.524,1.524,0,0,1,6.549,9.655V8.638A1.524,1.524,0,0,1,8.073,7.114H9.09a.508.508,0,1,0,0-1.016H8.073A2.541,2.541,0,0,0,5.533,8.638V9.655A2.541,2.541,0,0,0,8.073,12.2H9.09A.508.508,0,0,0,9.6,11.687ZM21.285,7.114H17.22a.508.508,0,0,0,0,1.016h4.065a.508.508,0,0,0,0-1.016ZM13.663,17.328V3.557a.508.508,0,1,0-1.016,0V17.328a2.541,2.541,0,1,0,1.016,0Zm-.508,4.014a1.524,1.524,0,1,1,1.524-1.524A1.524,1.524,0,0,1,13.155,21.342Zm8.13-10.163H17.22a.508.508,0,0,0,0,1.016h4.065a.508.508,0,0,0,0-1.016ZM17.22,10.163h2.033a.508.508,0,0,0,0-1.016H17.22a.508.508,0,0,0,0,1.016ZM15.7,16.037V2.541a2.541,2.541,0,1,0-5.081,0v13.5a4.573,4.573,0,0,0-1.89,4.919,4.522,4.522,0,0,0,3.344,3.3,4.787,4.787,0,0,0,1.087.132,4.563,4.563,0,0,0,2.551-8.354ZM15.36,22.6a3.6,3.6,0,0,1-3.049.671,3.547,3.547,0,0,1-.915-6.525.508.508,0,0,0,.254-.437V2.541a1.524,1.524,0,1,1,3.049,0V16.311a.508.508,0,0,0,.254.437A3.537,3.537,0,0,1,15.39,22.6Z" transform="translate(-3.5)" fill="#fd5d5d"/>
</svg>
