<svg xmlns="http://www.w3.org/2000/svg" xmlns:xlink="http://www.w3.org/1999/xlink" width="275.125" height="54.408" viewBox="0 0 275.125 54.408">
  <defs>
    <linearGradient id="linear-gradient" x1="0.004" y1="0.073" x2="0.971" y2="0.888" gradientUnits="objectBoundingBox">
      <stop offset="0" stop-color="#ec1d24"/>
      <stop offset="0.136" stop-color="#ec1f24"/>
      <stop offset="0.208" stop-color="#eb2722"/>
      <stop offset="0.265" stop-color="#e9351f"/>
      <stop offset="0.314" stop-color="#e7481b"/>
      <stop offset="0.358" stop-color="#e46116"/>
      <stop offset="0.399" stop-color="#e07f0f"/>
      <stop offset="0.435" stop-color="#dca308"/>
      <stop offset="0.467" stop-color="#d8c800"/>
      <stop offset="0.485" stop-color="#c5c507"/>
      <stop offset="0.531" stop-color="#97bd18"/>
      <stop offset="0.58" stop-color="#6eb727"/>
      <stop offset="0.632" stop-color="#4cb134"/>
      <stop offset="0.687" stop-color="#30ad3e"/>
      <stop offset="0.746" stop-color="#1ba946"/>
      <stop offset="0.811" stop-color="#0ca74c"/>
      <stop offset="0.887" stop-color="#03a54f"/>
      <stop offset="1" stop-color="#00a550"/>
    </linearGradient>
  </defs>
  <g id="Accu" transform="translate(-123.834 -238.85)">
    <path id="Path_481" data-name="Path 481" d="M217.689,267.414l-.014-.009a3.644,3.644,0,0,0-4.227.333,9.034,9.034,0,0,1-6.024,2.116c-5.783,0-9.515-3.871-9.515-9.7s3.732-9.7,9.515-9.7a8.97,8.97,0,0,1,6.005,2.116,3.665,3.665,0,0,0,4.246.333h0a3.615,3.615,0,0,0,.514-5.894,16.962,16.962,0,1,0,.023,26.294A3.614,3.614,0,0,0,217.689,267.414Z" transform="translate(-35.772 -2.325)" fill="#fff"/>
    <path id="Path_482" data-name="Path 482" d="M288.109,267.414l-.014-.009a3.643,3.643,0,0,0-4.227.333,9.034,9.034,0,0,1-6.024,2.116c-5.783,0-9.515-3.871-9.515-9.7s3.732-9.7,9.515-9.7a8.97,8.97,0,0,1,6.005,2.116,3.665,3.665,0,0,0,4.246.333h0a3.615,3.615,0,0,0,.514-5.894,16.962,16.962,0,1,0,.023,26.294A3.618,3.618,0,0,0,288.109,267.414Z" transform="translate(-73.587 -2.325)" fill="#fff"/>
    <path id="Path_483" data-name="Path 483" d="M440.85,280.761h-4.477a3.593,3.593,0,0,1-3.593-3.593V265.061a3.613,3.613,0,0,0,0-1.338v-.116h-.032a3.543,3.543,0,0,0-5.973-1.727l-20.687,20.687-6.913-6.913a3.569,3.569,0,0,0-4.8-.227l-.3.245c-1.6,1.644-3.172,3.148-4.658,4.477q-3.445,3.077-5.857,5.283l-.5.454-.5-.458q-2.417-2.208-5.857-5.315a107.651,107.651,0,0,1-7.691-7.7,60.311,60.311,0,0,1-6.413-8.408,15.44,15.44,0,0,1-2.662-8.1,9.34,9.34,0,0,1,2.75-7.01,9.438,9.438,0,0,1,6.977-2.718,10.975,10.975,0,0,1,6.251,2.088,14.44,14.44,0,0,1,4.723,5.278,2.578,2.578,0,0,0,1.093,1.158,2.9,2.9,0,0,0,2.81-.009,2.718,2.718,0,0,0,1.014-1.171,14.192,14.192,0,0,1,4.676-5.223,10.933,10.933,0,0,1,6.218-2.121,9.1,9.1,0,0,1,6.871,2.713,9.548,9.548,0,0,1,2.648,7.015,15.884,15.884,0,0,1-2.593,8.14c-.139.227-.282.454-.426.676l-.273.426.13.143-.5.5a3.829,3.829,0,0,0,5.024,5.76l.208-.176a4.252,4.252,0,0,0,1.116-1.574,24,24,0,0,0,4.635-13.895,16.716,16.716,0,0,0-4.824-12.158,16.255,16.255,0,0,0-12.02-4.9,17.6,17.6,0,0,0-7.116,1.546,17.054,17.054,0,0,0-5.764,4.357l-.528.593-.556-.569a20.425,20.425,0,0,0-5.834-4.375,16.382,16.382,0,0,0-6.982-1.551A16.721,16.721,0,0,0,352.62,255.9c0,.083,0,.171,0,.255a3.841,3.841,0,0,0-.111.894v5.889c0,2.472-1.167,4.57-5.13,4.57s-5.13-2.1-5.13-4.57V245.221a3.732,3.732,0,1,0-7.464,0v18.372c0,7,5.408,11.191,12.589,11.191,4.385,0,8.1-1.574,10.339-4.385.477.644.991,1.278,1.533,1.908a198.4,198.4,0,0,0,15.177,15.571l3.8,3.514a7.017,7.017,0,0,0,4.792,1.866,6.749,6.749,0,0,0,4.713-1.857l3.88-3.6c1.5-1.366,2.959-2.746,4.394-4.135l.523-.5,6.94,6.94c.014.014.023.032.037.046a3.491,3.491,0,0,0,.583.468c.074.046.153.079.227.12a3.475,3.475,0,0,0,.394.2c.083.032.176.051.264.079a3.065,3.065,0,0,0,.389.111,3.65,3.65,0,0,0,3.264-.945,3.592,3.592,0,0,0,.486-.616l16.2-16.2v10.959a3.593,3.593,0,0,0,3.593,3.593h11.936a3.581,3.581,0,1,0,.014-7.163Z" transform="translate(-113.282)" fill="url(#linear-gradient)"/>
    <path id="Path_484" data-name="Path 484" d="M582.782,274.76h0a3.733,3.733,0,0,0-3.732,3.732V303.67a3.733,3.733,0,0,0,3.732,3.732h0a3.733,3.733,0,0,0,3.732-3.732V278.492A3.733,3.733,0,0,0,582.782,274.76Z" transform="translate(-244.449 -19.284)" fill="#fff"/>
    <path id="Path_485" data-name="Path 485" d="M628.372,274.76h0a3.846,3.846,0,0,0-3.686,2.741l-2.8,10.279a3.849,3.849,0,0,1-7.371,0L611.88,277.5a3.848,3.848,0,1,0-7.343,2.3l8.126,24.947a3.846,3.846,0,0,0,3.658,2.658h3.926a3.846,3.846,0,0,0,3.658-2.658L632.03,279.8A3.849,3.849,0,0,0,628.372,274.76Z" transform="translate(-258.032 -19.284)" fill="#fff"/>
    <path id="Path_486" data-name="Path 486" d="M691.552,300.221h-7.644a2.7,2.7,0,0,1-2.7-2.7v-.375a2.7,2.7,0,0,1,2.7-2.7h6.246a2.7,2.7,0,0,0,2.7-2.7v-1.681a2.7,2.7,0,0,0-2.7-2.7h-6.246a2.7,2.7,0,0,1,0-5.408h7.413a2.7,2.7,0,0,0,2.7-2.7v-1.773a2.7,2.7,0,0,0-2.7-2.7H676.444a2.7,2.7,0,0,0-2.7,2.7V304.7a2.7,2.7,0,0,0,2.7,2.7h15.108a2.7,2.7,0,0,0,2.7-2.7v-1.773A2.7,2.7,0,0,0,691.552,300.221Z" transform="translate(-295.297 -19.283)" fill="#fff"/>
    <path id="Path_487" data-name="Path 487" d="M153.182,273.537l-9.2-27.053a2.79,2.79,0,0,0-2.644-1.894h-5.51a2.8,2.8,0,0,0-2.644,1.894l-9.2,27.053a2.8,2.8,0,0,0,2.644,3.695h2.218a2.8,2.8,0,0,0,2.662-1.945l.394-1.236a2.8,2.8,0,0,1,2.662-1.945H142.6a2.8,2.8,0,0,1,2.662,1.945l.394,1.236a2.8,2.8,0,0,0,2.662,1.945h2.218A2.8,2.8,0,0,0,153.182,273.537Zm-12.223-8.107h-5.25a1.012,1.012,0,0,1-.958-1.333l2.611-7.8a1.012,1.012,0,0,1,1.917,0l2.639,7.8A1.016,1.016,0,0,1,140.959,265.43Z" transform="translate(0 -3.082)" fill="#fff"/>
  </g>
</svg>
