<svg xmlns="http://www.w3.org/2000/svg" width="50" height="50" viewBox="0 0 50 50">
  <g id="Group_26" data-name="Group 26" transform="translate(-2025 -1868)">
    <circle id="Ellipse_4" data-name="Ellipse 4" cx="25" cy="25" r="25" transform="translate(2025 1868)" fill="#fff"/>
    <path id="Subtraction_1" data-name="Subtraction 1" d="M-2099,50a24.884,24.884,0,0,1-9.557-1.9,24.922,24.922,0,0,1-11.226-9.207A24.914,24.914,0,0,1-2124,25a24.869,24.869,0,0,1,1.893-9.56,24.866,24.866,0,0,1,5.408-8.108,25.066,25.066,0,0,1,2.247-2V30.768c0,6.226,3.759,10.838,11.49,14.1V.312A25.043,25.043,0,0,1-2099.045,0h.041a24.927,24.927,0,0,1,13.86,4.192,24.909,24.909,0,0,1,9.226,11.21,24.909,24.909,0,0,1,1.44,14.447,24.909,24.909,0,0,1-6.831,12.811,24.925,24.925,0,0,1-12.8,6.854A25.047,25.047,0,0,1-2099,50Zm.162-14.875v9.726c13.155-.458,17.7-7.905,17.587-14.143a14.547,14.547,0,0,0-14.835-14.193,18.182,18.182,0,0,0-2.838.229V26.777a12.417,12.417,0,0,1,1.313-.073,6.005,6.005,0,0,1,4.634,1.627,3.414,3.414,0,0,1,.932,2.592,4.055,4.055,0,0,1-1.669,2.9,7.236,7.236,0,0,1-4.456,1.318c-.218,0-.442-.007-.667-.02Z" transform="translate(4149 1868)" fill="#f58220" fill-rule="evenodd"/>
  </g>
</svg>
