<svg xmlns="http://www.w3.org/2000/svg" width="16" height="16.865" viewBox="0 0 16 16.865">
  <path id="Path_453" data-name="Path 453" d="M3.687,13.492l.632-.145Zm0-5.1.632.145Zm14.126,0-.632.145Zm0,5.1-.632-.145Zm-4.572,4.679.151.631Zm-4.982,0,.151-.631Zm0-14.457.151.631Zm4.982,0,.151-.631ZM8,2.9a.649.649,0,1,0-1.3,0ZM6.7,5.073a.649.649,0,1,0,1.3,0ZM14.8,2.9a.649.649,0,1,0-1.3,0ZM13.5,5.073a.649.649,0,1,0,1.3,0ZM4.319,13.347a10.769,10.769,0,0,1,0-4.809l-1.265-.29a12.066,12.066,0,0,0,0,5.388ZM17.181,8.538a10.769,10.769,0,0,1,0,4.809l1.265.29a12.067,12.067,0,0,0,0-5.388Zm-4.091,9a10.015,10.015,0,0,1-4.679,0l-.3,1.261a11.313,11.313,0,0,0,5.285,0ZM8.41,4.345a10.016,10.016,0,0,1,4.679,0l.3-1.261a11.313,11.313,0,0,0-5.285,0Zm0,13.2a5.56,5.56,0,0,1-4.091-4.193l-1.265.29A6.858,6.858,0,0,0,8.108,18.8ZM13.392,18.8a6.858,6.858,0,0,0,5.053-5.165l-1.265-.29A5.56,5.56,0,0,1,13.09,17.54Zm-.3-14.457a5.561,5.561,0,0,1,4.091,4.193l1.265-.29a6.858,6.858,0,0,0-5.053-5.165ZM8.108,3.083A6.858,6.858,0,0,0,3.055,8.248l1.265.29A5.56,5.56,0,0,1,8.41,4.345ZM3.952,8.113h13.6v-1.3H3.952ZM6.7,2.9V5.073H8V2.9Zm6.8,0V5.073h1.3V2.9Z" transform="translate(-2.75 -2.25)" fill="#f58220"/>
</svg>
