<svg xmlns="http://www.w3.org/2000/svg" width="22" height="13.749" viewBox="0 0 22 13.749">
  <g id="Group_53" data-name="Group 53" transform="translate(-11 -16)">
    <path id="Path_213" data-name="Path 213" d="M22,29.749a10.152,10.152,0,0,1-4.308-1.031,16.356,16.356,0,0,1-3.419-2.209,20.9,20.9,0,0,1-3.126-3.194.729.729,0,0,1,0-.88,20.894,20.894,0,0,1,3.126-3.194,16.352,16.352,0,0,1,3.419-2.209A10.151,10.151,0,0,1,22,16a10.151,10.151,0,0,1,4.308,1.031,16.352,16.352,0,0,1,3.419,2.209,20.641,20.641,0,0,1,3.126,3.194.729.729,0,0,1,0,.88,20.909,20.909,0,0,1-3.126,3.194,16.356,16.356,0,0,1-3.419,2.209A10.152,10.152,0,0,1,22,29.749Zm-9.322-6.874c1.15,1.361,4.949,5.408,9.322,5.408s8.171-4.047,9.321-5.408c-1.15-1.361-4.949-5.408-9.321-5.408S13.829,21.513,12.678,22.874Z" fill="#f58220"/>
    <path id="Path_214" data-name="Path 214" d="M24.145,27.17a3.3,3.3,0,1,1,3.3-3.3A3.3,3.3,0,0,1,24.145,27.17Zm0-5.133a1.833,1.833,0,1,0,1.833,1.833A1.833,1.833,0,0,0,24.145,22.037Z" transform="translate(-2.145 -0.996)" fill="#f58220"/>
  </g>
</svg>
