<svg xmlns="http://www.w3.org/2000/svg" width="15.1" height="16.364" viewBox="0 0 15.1 16.364">
  <path id="Path_254" data-name="Path 254" d="M21.292,29.391l5.918-7.117a.964.964,0,0,1,1.384.04,1.121,1.121,0,0,1,.038,1.473l-5.3,6.375,5.3,6.375a1.121,1.121,0,0,1-.038,1.473.964.964,0,0,1-1.384.04l-5.918-7.117a1.1,1.1,0,0,1-.292-.77,1.128,1.128,0,0,1,.073-.417A1.076,1.076,0,0,1,21.292,29.391Zm14.514,8.66a.964.964,0,0,1-1.422,0l-5.918-7.117a1.1,1.1,0,0,1-.292-.77,1.117,1.117,0,0,1,.072-.417,1.064,1.064,0,0,1,.22-.353l5.916-7.119a.964.964,0,0,1,1.384.04,1.121,1.121,0,0,1,.038,1.473l-5.3,6.375,5.3,6.375a1.12,1.12,0,0,1,0,1.515Z" transform="translate(-21 -22)" fill="#ff9949"/>
</svg>
