<svg xmlns="http://www.w3.org/2000/svg" xmlns:xlink="http://www.w3.org/1999/xlink" width="69.714" height="34.595" viewBox="0 0 69.714 34.595">
  <defs>
    <linearGradient id="linear-gradient" x1="0.004" y1="0.073" x2="0.971" y2="0.888" gradientUnits="objectBoundingBox">
      <stop offset="0" stop-color="#ec1d24"/>
      <stop offset="0.136" stop-color="#ec1f24"/>
      <stop offset="0.208" stop-color="#eb2722"/>
      <stop offset="0.265" stop-color="#e9351f"/>
      <stop offset="0.314" stop-color="#e7481b"/>
      <stop offset="0.358" stop-color="#e46116"/>
      <stop offset="0.399" stop-color="#e07f0f"/>
      <stop offset="0.435" stop-color="#dca308"/>
      <stop offset="0.467" stop-color="#d8c800"/>
      <stop offset="0.485" stop-color="#c5c507"/>
      <stop offset="0.531" stop-color="#97bd18"/>
      <stop offset="0.58" stop-color="#6eb727"/>
      <stop offset="0.632" stop-color="#4cb134"/>
      <stop offset="0.687" stop-color="#30ad3e"/>
      <stop offset="0.746" stop-color="#1ba946"/>
      <stop offset="0.811" stop-color="#0ca74c"/>
      <stop offset="0.887" stop-color="#03a54f"/>
      <stop offset="1" stop-color="#00a550"/>
    </linearGradient>
  </defs>
  <g id="Acculive-7-6-2022_-_Single_Logo" data-name="Acculive-7-6-2022 - Single Logo" transform="translate(-253.969 -238.85)">
    <path id="Path_480" data-name="Path 480" d="M402.229,265.5h-2.847a2.285,2.285,0,0,1-2.285-2.285v-7.7a2.3,2.3,0,0,0,0-.851v-.074h-.021a2.253,2.253,0,0,0-3.8-1.1l-13.154,13.154-4.4-4.4a2.269,2.269,0,0,0-3.05-.144l-.191.156c-1.019,1.045-2.017,2-2.962,2.847q-2.19,1.956-3.724,3.359l-.318.289-.318-.291q-1.537-1.4-3.724-3.38a68.446,68.446,0,0,1-4.89-4.893,38.346,38.346,0,0,1-4.077-5.346,9.818,9.818,0,0,1-1.693-5.149,5.939,5.939,0,0,1,1.749-4.457,6,6,0,0,1,4.437-1.728,6.979,6.979,0,0,1,3.974,1.328,9.181,9.181,0,0,1,3,3.356,1.64,1.64,0,0,0,.695.736,1.844,1.844,0,0,0,1.787-.006,1.729,1.729,0,0,0,.645-.745,9.022,9.022,0,0,1,2.973-3.321A6.951,6.951,0,0,1,374,243.513a5.788,5.788,0,0,1,4.369,1.725,6.071,6.071,0,0,1,1.684,4.46,10.1,10.1,0,0,1-1.649,5.176c-.088.144-.18.288-.271.43l-.174.271.082.091-.315.315a2.435,2.435,0,0,0,3.194,3.662l.132-.112a2.7,2.7,0,0,0,.71-1,15.262,15.262,0,0,0,2.947-8.835,10.629,10.629,0,0,0-3.068-7.731A10.335,10.335,0,0,0,374,238.85a11.19,11.19,0,0,0-4.525.983,10.845,10.845,0,0,0-3.665,2.77l-.336.377-.353-.362a12.986,12.986,0,0,0-3.71-2.782,10.416,10.416,0,0,0-4.44-.986,10.632,10.632,0,0,0-10.843,10.843c0,.053,0,.109,0,.162a2.442,2.442,0,0,0-.071.568v3.745c0,1.572-.742,2.906-3.262,2.906s-3.262-1.334-3.262-2.906V242.9a2.373,2.373,0,1,0-4.746,0v11.682c0,4.448,3.439,7.116,8,7.116a8.186,8.186,0,0,0,6.574-2.788c.3.409.63.813.974,1.213a126.158,126.158,0,0,0,9.651,9.9l2.414,2.235a4.462,4.462,0,0,0,3.047,1.186,4.291,4.291,0,0,0,3-1.181l2.467-2.287c.954-.868,1.881-1.746,2.794-2.629l.333-.321,4.413,4.413c.009.009.015.021.024.029a2.222,2.222,0,0,0,.371.3c.047.029.1.05.144.077a2.222,2.222,0,0,0,.25.127c.053.021.112.032.168.05a1.945,1.945,0,0,0,.247.071,2.321,2.321,0,0,0,2.076-.6,2.285,2.285,0,0,0,.309-.392l10.3-10.3v6.968a2.285,2.285,0,0,0,2.285,2.285h7.59a2.277,2.277,0,1,0,.009-4.554Z" transform="translate(-80.821)" fill="url(#linear-gradient)"/>
  </g>
</svg>
