<svg xmlns="http://www.w3.org/2000/svg" width="382.492" height="68.839" viewBox="0 0 382.492 68.839">
  <g id="Group_464" data-name="Group 464" transform="translate(-566.841 -484.482)">
    <rect id="Rectangle_143" data-name="Rectangle 143" width="11.128" height="1.647" transform="translate(737.108 516.184)" fill="#fff"/>
    <rect id="Rectangle_144" data-name="Rectangle 144" width="11.674" height="1.647" transform="translate(818.722 516.363)" fill="#fff"/>
    <g id="Group_460" data-name="Group 460" transform="translate(566.841 495.076)">
      <path id="Path_466" data-name="Path 466" d="M600.039,548.925l-2.409-7.066h-17.3l-2.248,7.066H566.841l15.288-44.967h13.1l15.322,44.967Zm-16.591-16.7h10.9l-5.63-16.509Z" transform="translate(-566.841 -503.059)" fill="#fff"/>
      <path id="Path_467" data-name="Path 467" d="M664.845,549.2a23.385,23.385,0,1,1,0-46.766,23.026,23.026,0,0,1,11.177,2.794,21.158,21.158,0,0,1,8.094,7.612l-8.865,5.139a10.131,10.131,0,0,0-4.24-4.08,13.1,13.1,0,0,0-6.166-1.445,12.7,12.7,0,0,0-9.539,3.662,14.977,14.977,0,0,0,0,19.4,12.7,12.7,0,0,0,9.539,3.662,13.05,13.05,0,0,0,6.2-1.478,9.985,9.985,0,0,0,4.208-4.047l8.865,5.139a20.683,20.683,0,0,1-8.03,7.612A23.155,23.155,0,0,1,664.845,549.2Z" transform="translate(-597.426 -502.434)" fill="#fff"/>
      <path id="Path_468" data-name="Path 468" d="M740.935,549.2a23.385,23.385,0,1,1,0-46.766,23.025,23.025,0,0,1,11.177,2.794,21.153,21.153,0,0,1,8.094,7.612l-8.865,5.139a10.134,10.134,0,0,0-4.24-4.08,13.1,13.1,0,0,0-6.167-1.445,12.7,12.7,0,0,0-9.539,3.662,14.977,14.977,0,0,0,0,19.4,12.7,12.7,0,0,0,9.539,3.662,13.049,13.049,0,0,0,6.2-1.478,9.985,9.985,0,0,0,4.208-4.047l8.865,5.139a20.674,20.674,0,0,1-8.03,7.612A23.151,23.151,0,0,1,740.935,549.2Z" transform="translate(-628.613 -502.434)" fill="#fff"/>
      <path id="Path_469" data-name="Path 469" d="M827.259,545.648q-4.883,4.177-12.462,4.176t-12.462-4.176a14.03,14.03,0,0,1-4.882-11.241V503.958H807.73v29.55q0,6.3,7.066,6.3t7.066-6.3v-29.55h10.279v30.449A14.034,14.034,0,0,1,827.259,545.648Z" transform="translate(-661.362 -503.059)" fill="#fff"/>
    </g>
    <g id="Group_461" data-name="Group 461" transform="translate(829.85 495.975)">
      <path id="Path_470" data-name="Path 470" d="M1022.8,539.032h16.059v9.892h-26.338V503.958H1022.8Z" transform="translate(-1012.521 -503.958)" fill="#fff"/>
      <path id="Path_471" data-name="Path 471" d="M1064.771,503.958h10.279v44.967h-10.279Z" transform="translate(-1033.937 -503.958)" fill="#fff"/>
      <path id="Path_472" data-name="Path 472" d="M1102.574,548.925l-13.854-44.967h11.215l10.024,33.22,9.917-33.22h10.337l-13.742,44.967Z" transform="translate(-1043.753 -503.958)" fill="#fff"/>
      <path id="Path_473" data-name="Path 473" d="M1177.373,539.032h17.986v9.892h-28.265V503.958h27.943v9.892h-17.664V521.3h16.059v9.764h-16.059Z" transform="translate(-1075.876 -503.958)" fill="#fff"/>
    </g>
    <g id="Group_463" data-name="Group 463" transform="translate(745.331 484.482)">
      <g id="Group_462" data-name="Group 462">
        <path id="Path_474" data-name="Path 474" d="M945.911,502.834a19.884,19.884,0,0,0-11.366-15.98c-9.155-4.5-16.286-1.762-20.656,1.329a27.455,27.455,0,0,0-6.183,6.157,27.442,27.442,0,0,0-6.183-6.157c-4.37-3.091-11.5-5.83-20.656-1.329a19.887,19.887,0,0,0-11.367,15.98c-1.192,9.417,3.092,20.381,10.418,26.663,9.452,8.1,26.8,23.364,26.972,23.517a1.235,1.235,0,0,0,1.631,0c.174-.153,17.521-15.413,26.972-23.517C942.819,523.215,947.1,512.25,945.911,502.834Z" transform="translate(-869.301 -484.482)" fill="#ff333d"/>
      </g>
      <path id="Path_475" data-name="Path 475" d="M931.087,528.827l-1.568-3.748a.824.824,0,0,0-.76-.505h-.012a.824.824,0,0,0-.757.527l-1.933,5.014-3.171-14.584a.823.823,0,0,0-1.616.037l-3.779,22.313-3.141-15.011a.823.823,0,0,0-1.584-.1l-2.084,6.056h-5l-1.569-3.748a.824.824,0,0,0-.76-.505h-.012a.823.823,0,0,0-.756.527l-1.933,5.014-3.17-14.584a.813.813,0,0,0-.824-.649.824.824,0,0,0-.793.686l-3.779,22.313L888.95,522.87a.823.823,0,0,0-1.582-.106l-2.081,5.88H872.33q.144.412.3.821l0,.009q.155.41.322.816h12.915a.825.825,0,0,0,.777-.549l1.294-3.659,3.43,16.393a.823.823,0,0,0,1.618-.031l3.795-22.4,2.849,13.108a.823.823,0,0,0,1.573.122l2.185-5.668.989,2.364a.825.825,0,0,0,.759.505h6.133a.823.823,0,0,0,.778-.555l1.3-3.786,3.42,16.345a.822.822,0,0,0,.806.654h.016a.824.824,0,0,0,.8-.686l3.794-22.4,2.85,13.108a.823.823,0,0,0,1.573.122l2.185-5.668.99,2.364a.824.824,0,0,0,.76.505h14.325c.225-.543.438-1.092.635-1.646Z" transform="translate(-870.542 -496.941)" fill="#fff"/>
    </g>
  </g>
</svg>
