<svg xmlns="http://www.w3.org/2000/svg" xmlns:xlink="http://www.w3.org/1999/xlink" width="36.504" height="36.504" viewBox="0 0 36.504 36.504">
  <defs>
    <clipPath id="clip-path">
      <rect id="Rectangle_113" data-name="Rectangle 113" width="25.353" height="26.271" fill="#f58220"/>
    </clipPath>
  </defs>
  <g id="Group_338" data-name="Group 338" transform="translate(17.927 36.504) rotate(-135)" opacity="0.3">
    <g id="Group_276" data-name="Group 276" transform="translate(0 0)" clip-path="url(#clip-path)">
      <path id="Path_425" data-name="Path 425" d="M3.5,1.809c.075,1.617.12,3.1.279,4.571A28.586,28.586,0,0,0,6.613,16.915a11.191,11.191,0,0,0,5.207,5.236,7.819,7.819,0,0,0,2.92.722.523.523,0,0,1,.427.179,8.978,8.978,0,0,0,5.324,2.83,21.826,21.826,0,0,0,4.473.389c.29,0,.455-.057.364-.372-.071-.248.219-.676-.4-.657a15.22,15.22,0,0,1-6.51-1.01,6.292,6.292,0,0,1-2.043-1.326,8.8,8.8,0,0,0,2.656-.849,6.046,6.046,0,0,0,2.89-2.868,3.736,3.736,0,0,0-1.393-4.651,3.386,3.386,0,0,0-4.4.1,6.077,6.077,0,0,0-1.947,6.641c.044.122.159.292.063.359a.746.746,0,0,1-.569.029,7.472,7.472,0,0,1-3.353-1.713A13.909,13.909,0,0,1,6.424,13.91a37.466,37.466,0,0,1-1.9-11.954c.19-.045.242.109.323.189.777.767,1.553,1.537,2.316,2.319.182.187.287.232.495.019.466-.478.48-.465,0-.939C6.546,2.425,5.42,1.315,4.316.182c-.241-.247-.367-.24-.6,0C2.549,1.373,1.383,2.56.18,3.707c-.366.349-.09.467.094.671.2.221.334.376.634.054C1.714,3.564,2.57,2.742,3.5,1.809M21.19,17.439a3.207,3.207,0,0,1-.765,2.146,6.3,6.3,0,0,1-4.5,2.236.513.513,0,0,1-.591-.355,5.259,5.259,0,0,1,1.32-6.009,2.387,2.387,0,0,1,2.716-.464,3.02,3.02,0,0,1,1.822,2.446" transform="translate(0 0)" fill="#f58220"/>
    </g>
  </g>
</svg>
