<svg xmlns="http://www.w3.org/2000/svg" xmlns:xlink="http://www.w3.org/1999/xlink" width="67.334" height="67.979" viewBox="0 0 67.334 67.979">
  <defs>
    <clipPath id="clip-path">
      <rect id="Rectangle_113" data-name="Rectangle 113" width="48.647" height="50.409" fill="#f58220"/>
    </clipPath>
  </defs>
  <g id="Group_277" data-name="Group 277" transform="translate(25.205) rotate(30)">
    <g id="Group_276" data-name="Group 276" transform="translate(0 0)" clip-path="url(#clip-path)">
      <path id="Path_425" data-name="Path 425" d="M6.713,3.471c.144,3.1.231,5.944.535,8.77.757,7.024,2.09,13.9,5.441,20.215C15,36.807,18.1,40.41,22.68,42.5a15,15,0,0,0,5.6,1.385,1,1,0,0,1,.819.344c2.669,3.188,6.3,4.6,10.215,5.43a41.879,41.879,0,0,0,8.583.747c.556,0,.873-.11.7-.715-.137-.476.421-1.3-.767-1.261A29.2,29.2,0,0,1,35.34,46.5a12.072,12.072,0,0,1-3.919-2.544,16.894,16.894,0,0,0,5.1-1.63,11.6,11.6,0,0,0,5.546-5.5c1.427-3.233.426-6.545-2.674-8.925-2.631-2.021-5.691-1.949-8.45.2A11.661,11.661,0,0,0,27.2,40.836c.084.233.305.561.12.688a1.432,1.432,0,0,1-1.093.055A14.337,14.337,0,0,1,19.8,38.293a26.688,26.688,0,0,1-7.47-11.6C9.652,19.28,8.874,11.563,8.684,3.753c.365-.086.465.209.621.363,1.492,1.472,2.98,2.948,4.443,4.449.349.358.551.445.949.036.894-.917.92-.892.01-1.8C12.561,4.654,10.4,2.523,8.282.35c-.462-.474-.7-.46-1.159,0C4.891,2.634,2.654,4.912.345,7.113c-.7.67-.172.9.181,1.288.38.423.642.722,1.216.1C3.29,6.838,4.932,5.261,6.713,3.471M40.659,33.462a6.153,6.153,0,0,1-1.468,4.118,12.09,12.09,0,0,1-8.638,4.291.984.984,0,0,1-1.134-.68,10.091,10.091,0,0,1,2.532-11.53c1.561-1.275,3.308-1.829,5.212-.891a5.8,5.8,0,0,1,3.5,4.692" transform="translate(0 0)" fill="#f58220"/>
    </g>
  </g>
</svg>
