<svg xmlns="http://www.w3.org/2000/svg" width="32" height="32" viewBox="0 0 32 32">
  <g id="Group_4" data-name="Group 4" transform="translate(-4352 -698)">
    <rect id="Rectangle_17" data-name="Rectangle 17" width="32" height="32" transform="translate(4352 698)" fill="none"/>
    <g id="Group_3" data-name="Group 3" transform="translate(4357.333 706.534)">
      <circle id="Ellipse_1" data-name="Ellipse 1" cx="1.599" cy="1.599" r="1.599" transform="translate(9.067 5.869)" fill="#e6e6e6"/>
      <path id="Path_176" data-name="Path 176" d="M23.187,11.931C22.5,10.747,18.751,4.808,12.375,5c-5.9.149-9.308,5.331-10.236,6.931a1.066,1.066,0,0,0,0,1.066c.672,1.162,4.265,6.931,10.545,6.931h.267c5.9-.149,9.319-5.331,10.236-6.931A1.066,1.066,0,0,0,23.187,11.931ZM12.663,16.2a3.732,3.732,0,1,1,3.732-3.732A3.732,3.732,0,0,1,12.663,16.2Z" transform="translate(-1.996 -4.996)" fill="#e6e6e6"/>
    </g>
  </g>
</svg>
