<svg xmlns="http://www.w3.org/2000/svg" width="13.513" height="17" viewBox="0 0 13.513 17">
  <path id="Path_309" data-name="Path 309" d="M5.164,11.288l.646.1ZM6.322,8.815l.115-.644L6.07,8.105l-.243.282ZM5.131,11.491l-.646-.1h0ZM5.3,14.275l-.629.18h0Zm.1.358.629-.18h0Zm4.382,3.86-.11.645h0Zm2.45,0,.11.645Zm4.382-3.86-.629-.18h0Zm.1-.358.629.18Zm.166-2.783.645-.1h0Zm-.033-.2-.646.1ZM15.691,8.815l.495-.428-.243-.282-.366.066Zm.12-.022-.118-.643Zm-9.609,0L6.32,8.15Zm2.189-3.35H7.737V6.1h.654Zm.766-1.8.455.469h0Zm.848-.55.244.607Zm2,0-.244.607h0Zm1.415,1.374.6-.257h0Zm.2.972V6.1h.654V5.443ZM9.917,11.367a.654.654,0,0,0-1.308,0ZM8.609,14.753a.654.654,0,1,0,1.308,0ZM13.4,11.367a.654.654,0,1,0-1.308,0ZM12.1,14.753a.654.654,0,1,0,1.308,0ZM5.809,11.392a4.34,4.34,0,0,1,1.007-2.15l-.989-.855a5.647,5.647,0,0,0-1.309,2.8Zm-.033.2.033-.2-1.291-.208-.033.2Zm.149,2.5a5.751,5.751,0,0,1-.149-2.5l-1.291-.208a7.059,7.059,0,0,0,.183,3.067Zm.1.358-.1-.358-1.257.36.1.358Zm3.863,3.395a4.832,4.832,0,0,1-3.863-3.395l-1.257.36a6.139,6.139,0,0,0,4.9,4.324Zm2.23,0a6.635,6.635,0,0,1-2.23,0l-.22,1.289a7.945,7.945,0,0,0,2.669,0Zm3.863-3.395a4.832,4.832,0,0,1-3.863,3.395l.22,1.289a6.139,6.139,0,0,0,4.9-4.324Zm.1-.358-.1.358,1.257.36.1-.358Zm.149-2.5a5.752,5.752,0,0,1-.149,2.5l1.257.36a7.059,7.059,0,0,0,.183-3.067Zm-.033-.2.033.2,1.291-.208-.033-.2ZM15.2,9.242a4.339,4.339,0,0,1,1.007,2.15l1.291-.208a5.647,5.647,0,0,0-1.309-2.8Zm.38-1.071a25.97,25.97,0,0,1-9.139,0l-.23,1.287a27.279,27.279,0,0,0,9.6,0ZM6.657,6.1h8.7V4.789h-8.7Zm9.8,1.048v.128h1.308V7.145Zm-10.9.128V7.145H4.25v.128Zm10.135.878a25.969,25.969,0,0,1-9.373,0L6.084,9.436a27.277,27.277,0,0,0,9.845,0ZM4.25,7.272A2.214,2.214,0,0,0,6.084,9.436L6.32,8.15a.907.907,0,0,1-.762-.878Zm12.205,0a.907.907,0,0,1-.762.878l.236,1.286a2.214,2.214,0,0,0,1.834-2.164ZM15.356,6.1a1.074,1.074,0,0,1,1.1,1.048h1.308a2.381,2.381,0,0,0-2.407-2.355Zm-8.7-1.308A2.381,2.381,0,0,0,4.25,7.145H5.558A1.074,1.074,0,0,1,6.657,6.1Zm1.332-.574a3.129,3.129,0,0,0-.252,1.228H9.045a1.821,1.821,0,0,1,.147-.715ZM8.7,3.178a3.189,3.189,0,0,0-.713,1.036l1.2.513a1.882,1.882,0,0,1,.421-.611Zm1.06-.688a3.276,3.276,0,0,0-1.06.688l.911.938A1.969,1.969,0,0,1,10.25,3.7Zm1.245-.24a3.338,3.338,0,0,0-1.245.24L10.25,3.7a2.03,2.03,0,0,1,.757-.146Zm1.245.24a3.338,3.338,0,0,0-1.245-.24V3.558a2.03,2.03,0,0,1,.757.146Zm1.06.688a3.275,3.275,0,0,0-1.06-.688L11.763,3.7a1.969,1.969,0,0,1,.637.413Zm.713,1.036a3.189,3.189,0,0,0-.713-1.036l-.911.938a1.882,1.882,0,0,1,.421.611Zm.252,1.228a3.129,3.129,0,0,0-.252-1.228l-1.2.513a1.82,1.82,0,0,1,.147.715ZM8.391,6.1h5.231V4.789H8.391Zm.218,5.271v3.386H9.917V11.367Zm3.487,0v3.386H13.4V11.367Z" transform="translate(-4.25 -2.25)" fill="#fd5d5d"/>
</svg>
