<svg xmlns="http://www.w3.org/2000/svg" width="15.1" height="16.364" viewBox="0 0 15.1 16.364">
  <path id="Path_253" data-name="Path 253" d="M378.808,29.391l-5.918-7.117a.963.963,0,0,0-1.384.04,1.121,1.121,0,0,0-.038,1.473l5.3,6.375-5.3,6.375a1.113,1.113,0,0,0-.257.744,1.1,1.1,0,0,0,.3.728.964.964,0,0,0,1.384.04l5.918-7.117a1.1,1.1,0,0,0,.292-.77,1.135,1.135,0,0,0-.073-.417A1.082,1.082,0,0,0,378.808,29.391Zm-14.514,8.66a.964.964,0,0,0,1.422,0l5.918-7.117a1.1,1.1,0,0,0,.292-.77,1.116,1.116,0,0,0-.072-.417,1.061,1.061,0,0,0-.22-.353l-5.916-7.119a.963.963,0,0,0-1.384.04,1.121,1.121,0,0,0-.038,1.473l5.3,6.375-5.3,6.375a1.12,1.12,0,0,0,0,1.515Z" transform="translate(-364 -22)" fill="#ff9949"/>
</svg>
